<?xml version="1.0" encoding="utf-8"?>
<!-- Generator: Adobe Illustrator 20.0.0, SVG Export Plug-In . SVG Version: 6.00 Build 0)  -->
<svg version="1.1" id="Layer_1" xmlns="http://www.w3.org/2000/svg" xmlns:xlink="http://www.w3.org/1999/xlink" x="0px" y="0px"
	 viewBox="0 0 1396.1 97.9" style="enable-background:new 0 0 1396.1 97.9;" xml:space="preserve">
<style type="text/css">
	.st0{fill:#FFFFFF;}
</style>
<g>
	<path class="st0" d="M44.9,39.6c-16.4-4.2-20.4-6.2-20.4-12.4v-0.3c0-4.6,4.2-8.2,12.2-8.2c8,0,16.2,3.5,24.6,9.3l10.8-15.7
		c-9.6-7.7-21.4-12-35.2-12C17.6,0.3,3.8,11.6,3.8,28.8v0.3c0,18.8,12.3,24.1,31.4,28.9c15.8,4.1,19.1,6.8,19.1,12v0.3
		c0,5.5-5.1,8.9-13.7,8.9c-10.8,0-19.7-4.5-28.3-11.5L0,82.5c11.4,10.1,25.8,15.1,40.2,15.1c20.4,0,34.7-10.5,34.7-29.3V68
		C74.9,51.5,64.1,44.6,44.9,39.6z"/>
	<polygon class="st0" points="149.8,20.8 178.6,20.8 178.6,96.3 199.4,96.3 199.4,20.8 228.2,20.8 228.2,1.6 149.8,1.6 	"/>
	<path class="st0" d="M352,0c-29.2,0-50.4,22-50.4,48.9v0.3c0,26.9,21,48.7,50.2,48.7s50.4-22,50.4-48.9v-0.3
		C402.1,21.8,381.2,0,352,0z M380.3,49.2c0,16.2-11.6,29.5-28.4,29.5c-16.8,0-28.7-13.5-28.7-29.7v-0.3c0-16.2,11.6-29.5,28.4-29.5
		s28.7,13.5,28.7,29.7V49.2z"/>
	<polygon class="st0" points="549.8,59.9 505.4,1.6 486.2,1.6 486.2,96.3 506.8,96.3 506.8,36.1 552.6,96.3 570.3,96.3 570.3,1.6
		549.8,1.6 	"/>
	<polygon class="st0" points="679.3,57.9 723.9,57.9 723.9,39.3 679.3,39.3 679.3,20.1 730,20.1 730,1.6 658.6,1.6 658.6,39.3
		644.6,39.3 644.6,57.9 658.6,57.9 658.6,96.3 730.7,96.3 730.7,77.7 679.3,77.7 	"/>
	<polygon class="st0" points="835.6,1.6 814.8,1.6 814.8,96.3 882.8,96.3 882.8,77.3 835.6,77.3 	"/>
	<path class="st0" d="M996.5,0.9l-23.7,55.7H955V75h10l-9,21.2h21.2l8.7-21.2h40l8.7,21.2h21.8l-40.6-95.3H996.5z M993.3,56.6
		l12.6-30.7l12.6,30.7H993.3z"/>
	<polygon class="st0" points="1200,59.9 1155.7,1.6 1136.5,1.6 1136.5,96.3 1157,96.3 1157,36.1 1202.8,96.3 1220.6,96.3
		1220.6,1.6 1200,1.6 	"/>
	<path class="st0" d="M1345.8,1.6h-36.9v94.6h36.9c29.7,0,50.3-20.7,50.3-47.3v-0.3C1396.1,22,1375.5,1.6,1345.8,1.6z M1374.3,49.2
		c0,16.8-11.5,28.3-28.5,28.3h-16.1V20.4h16.1c17,0,28.5,11.8,28.5,28.5V49.2z"/>
</g>
</svg>
